<svg width="20" height="18" viewBox="0 0 20 18" fill="none" xmlns="http://www.w3.org/2000/svg">
<path d="M11.3086 1.40227L10.4414 0.51031C10.0742 0.132632 9.48047 0.132632 9.11719 0.51031L1.52344 8.31701C1.15625 8.69468 1.15625 9.3054 1.52344 9.67906L9.11328 17.4858C9.48047 17.8634 10.0742 17.8634 10.4375 17.4858L11.3047 16.5938C11.6758 16.2121 11.668 15.5893 11.2891 15.2157L6.58594 10.6072L17.8125 10.6072C18.332 10.6072 18.75 10.1773 18.75 9.6429L18.75 8.35719C18.75 7.82281 18.332 7.3929 17.8125 7.3929L6.58594 7.3929L11.293 2.7804C11.6758 2.40674 11.6836 1.78397 11.3086 1.40227Z" fill="black" stroke="white"/>
</svg>
