<svg width="86" height="86" viewBox="0 0 86 86" fill="none" xmlns="http://www.w3.org/2000/svg">
<circle cx="44.5" cy="41.4999" r="32.5" fill="#0EC541" fill-opacity="0.8"/>
<g clip-path="url(#clip0)">
<path d="M57.4778 41.2261H61.0098C61.0098 32.1664 54.17 25.3336 45.0979 25.3336V28.8657C52.2715 28.8657 57.4778 34.0631 57.4778 41.2261Z" fill="white"/>
<path d="M45.1156 35.9298C48.8295 35.9298 50.4137 37.5139 50.4137 41.2279H53.9457C53.9457 35.5324 50.811 32.3978 45.1156 32.3978V35.9298ZM51.1589 45.5423C50.8196 45.2338 50.3736 45.0693 49.9153 45.0835C49.4569 45.0977 49.022 45.2894 48.7024 45.6182L44.4763 49.9644C43.459 49.7701 41.414 49.1326 39.3089 47.0328C37.2038 44.9259 36.5663 42.8756 36.3773 41.8654L40.7199 37.6376C41.0492 37.3181 41.2412 36.8831 41.2553 36.4247C41.2695 35.9662 41.1047 35.5202 40.7959 35.181L34.2704 28.0057C33.9614 27.6654 33.532 27.4591 33.0733 27.4304C32.6146 27.4017 32.1628 27.5529 31.8139 27.852L27.9816 31.1386C27.6763 31.445 27.494 31.8528 27.4695 32.2847C27.443 32.7262 26.9379 43.1846 35.0475 51.2978C42.1222 58.3707 50.9841 58.8881 53.4247 58.8881C53.7815 58.8881 54.0004 58.8775 54.0587 58.874C54.4905 58.8498 54.8982 58.6668 55.2031 58.3601L58.4879 54.526C58.7872 54.1773 58.9387 53.7256 58.9104 53.267C58.882 52.8083 58.676 52.3787 58.336 52.0695L51.1589 45.5423V45.5423Z" fill="white"/>
</g>
<defs>
<clipPath id="clip0">
<rect x="85.7212" y="42.2532" width="59.9317" height="59.9317" rx="14" transform="rotate(133.998 85.7212 42.2532)" fill="white"/>
</clipPath>
</defs>
</svg>
