<svg width="65" height="65" viewBox="0 0 65 65" fill="none" xmlns="http://www.w3.org/2000/svg">
<circle cx="32.5" cy="32.5" r="32.5" fill="#FF090A"/>
<g clip-path="url(#clip0)">
<path d="M15.278 38.8082L22.6107 38.6804C24.0682 38.652 25.2339 37.3999 25.2072 35.8882L25.143 32.1946C25.3231 32.139 25.5101 32.0822 25.7074 32.023C27.511 31.4712 29.9807 30.7172 33.3417 30.6597C36.7112 30.6006 39.2091 31.2693 41.0336 31.7565C41.2266 31.8084 41.4123 31.8588 41.5911 31.9042L41.6325 34.3816L41.6546 35.6013C41.6813 37.1151 42.8909 38.3242 44.3488 38.2996L51.682 38.1722C53.1389 38.1466 54.3051 36.8939 54.2784 35.38L54.2362 33.3077L54.18 33.3089C54.0706 32.522 53.8362 31.7265 53.4885 30.967C53.1511 30.2507 52.7644 29.6342 52.3107 29.085C48.703 24.6493 43.1692 22.9116 33.215 23.0856C19.4558 23.3266 14.5373 29.4784 14.3281 29.7467C13.8797 30.3379 13.5158 30.9681 13.2178 31.6779C12.8989 32.4417 12.6925 33.2442 12.6101 34.0334L12.5675 34.0367L12.582 36.1088C12.6101 37.6209 13.8192 38.8313 15.278 38.8082Z" fill="white"/>
</g>
<defs>
<clipPath id="clip0">
<rect x="57.1668" y="33.627" width="33.5776" height="33.5776" transform="rotate(133.998 57.1668 33.627)" fill="white"/>
</clipPath>
</defs>
</svg>
