<svg width="117" height="50" viewBox="0 0 117 50" fill="none" xmlns="http://www.w3.org/2000/svg">
<rect x="1" y="1" width="115" height="48" rx="9" stroke="#3B5998" stroke-width="2"/>
<path d="M31.0847 26.375L31.7513 22.3935H27.5836V19.8098C27.5836 18.7205 28.1658 17.6588 30.0324 17.6588H31.9271V14.269C31.9271 14.269 30.2077 14 28.5638 14C25.1316 14 22.8882 15.907 22.8882 19.3591V22.3935H19.073V26.375H22.8882V36H27.5836V26.375H31.0847Z" fill="#3B5998"/>
<path d="M41.9375 20.504H48.0015V21.624H43.2815V25.176H47.2815V26.296H43.2815V31H41.9375V20.504ZM48.7548 28.984C48.7548 28.1307 49.1334 27.48 49.8908 27.032C50.6588 26.5733 51.8748 26.2533 53.5388 26.072C53.5388 25.8267 53.5121 25.5867 53.4588 25.352C53.4161 25.1173 53.3308 24.9093 53.2028 24.728C53.0854 24.5467 52.9254 24.4027 52.7228 24.296C52.5201 24.1787 52.2588 24.12 51.9388 24.12C51.4801 24.12 51.0534 24.2053 50.6588 24.376C50.2748 24.5467 49.9281 24.7387 49.6188 24.952L49.0908 24.04C49.4534 23.8053 49.8961 23.5813 50.4188 23.368C50.9414 23.144 51.5174 23.032 52.1468 23.032C53.0961 23.032 53.7841 23.3253 54.2108 23.912C54.6374 24.488 54.8508 25.2613 54.8508 26.232V31H53.7628L53.6508 30.072H53.6188C53.2454 30.3813 52.8401 30.648 52.4028 30.872C51.9761 31.0853 51.5228 31.192 51.0428 31.192C50.3814 31.192 49.8321 31 49.3948 30.616C48.9681 30.232 48.7548 29.688 48.7548 28.984ZM50.0508 28.888C50.0508 29.336 50.1788 29.656 50.4348 29.848C50.7014 30.04 51.0268 30.136 51.4108 30.136C51.7841 30.136 52.1361 30.0507 52.4668 29.88C52.8081 29.6987 53.1654 29.4373 53.5388 29.096V26.936C52.8881 27.0213 52.3388 27.1227 51.8908 27.24C51.4428 27.3573 51.0801 27.496 50.8028 27.656C50.5361 27.816 50.3441 28.0027 50.2268 28.216C50.1094 28.4187 50.0508 28.6427 50.0508 28.888ZM56.7503 27.128C56.7503 26.4773 56.8516 25.9013 57.0543 25.4C57.2569 24.888 57.5289 24.456 57.8703 24.104C58.2116 23.752 58.6063 23.4853 59.0543 23.304C59.5129 23.1227 59.9929 23.032 60.4943 23.032C61.0063 23.032 61.4436 23.128 61.8063 23.32C62.1796 23.5013 62.4996 23.7147 62.7663 23.96L62.1103 24.808C61.8756 24.6053 61.6303 24.44 61.3743 24.312C61.1289 24.184 60.8516 24.12 60.5423 24.12C60.1903 24.12 59.8649 24.1947 59.5663 24.344C59.2676 24.4827 59.0116 24.6853 58.7983 24.952C58.5849 25.2187 58.4143 25.5387 58.2863 25.912C58.1689 26.2747 58.1103 26.68 58.1103 27.128C58.1103 27.576 58.1689 27.9813 58.2863 28.344C58.4036 28.7067 58.5636 29.0213 58.7663 29.288C58.9796 29.544 59.2356 29.7467 59.5343 29.896C59.8329 30.0347 60.1583 30.104 60.5103 30.104C60.8836 30.104 61.2196 30.0293 61.5183 29.88C61.8276 29.72 62.0996 29.5333 62.3343 29.32L62.9263 30.184C62.5743 30.4933 62.1796 30.7387 61.7423 30.92C61.3156 31.1013 60.8676 31.192 60.3983 31.192C59.8863 31.192 59.4063 31.1013 58.9583 30.92C58.5103 30.7387 58.1209 30.4773 57.7903 30.136C57.4703 29.784 57.2143 29.3573 57.0223 28.856C56.8409 28.344 56.7503 27.768 56.7503 27.128ZM63.7034 27.128C63.7034 26.488 63.7994 25.9173 63.9914 25.416C64.1941 24.904 64.4554 24.472 64.7754 24.12C65.1061 23.768 65.4794 23.5013 65.8954 23.32C66.3114 23.128 66.7434 23.032 67.1914 23.032C67.6821 23.032 68.1194 23.1173 68.5034 23.288C68.8981 23.4587 69.2234 23.704 69.4794 24.024C69.7461 24.344 69.9487 24.728 70.0874 25.176C70.2261 25.624 70.2954 26.1253 70.2954 26.68C70.2954 26.968 70.2794 27.208 70.2474 27.4H64.9994C65.0527 28.2427 65.3087 28.9093 65.7674 29.4C66.2367 29.8907 66.8447 30.136 67.5914 30.136C67.9647 30.136 68.3061 30.0827 68.6154 29.976C68.9354 29.8587 69.2394 29.7093 69.5274 29.528L69.9914 30.392C69.6501 30.6053 69.2714 30.792 68.8554 30.952C68.4394 31.112 67.9647 31.192 67.4314 31.192C66.9087 31.192 66.4181 31.1013 65.9594 30.92C65.5114 30.728 65.1167 30.4613 64.7754 30.12C64.4447 29.768 64.1834 29.3413 63.9914 28.84C63.7994 28.3387 63.7034 27.768 63.7034 27.128ZM69.1434 26.536C69.1434 25.736 68.9727 25.128 68.6314 24.712C68.3007 24.2853 67.8314 24.072 67.2234 24.072C66.9461 24.072 66.6794 24.1307 66.4234 24.248C66.1781 24.3547 65.9541 24.5147 65.7514 24.728C65.5487 24.9307 65.3781 25.1867 65.2394 25.496C65.1114 25.7947 65.0261 26.1413 64.9834 26.536H69.1434ZM72.2169 19.608H73.5289V22.712L73.4969 24.12C73.8489 23.8107 74.2329 23.5547 74.6489 23.352C75.0649 23.1387 75.4916 23.032 75.9289 23.032C76.4302 23.032 76.8729 23.128 77.2569 23.32C77.6409 23.5013 77.9609 23.768 78.2169 24.12C78.4836 24.4613 78.6809 24.8773 78.8089 25.368C78.9476 25.848 79.0169 26.3867 79.0169 26.984C79.0169 27.6453 78.9262 28.2373 78.7449 28.76C78.5636 29.2827 78.3182 29.7253 78.0089 30.088C77.6996 30.4507 77.3422 30.728 76.9369 30.92C76.5316 31.1013 76.1049 31.192 75.6569 31.192C75.2942 31.192 74.9156 31.112 74.5209 30.952C74.1369 30.7813 73.7742 30.5413 73.4329 30.232H73.3849L73.2729 31H72.2169V19.608ZM73.5289 29.272C73.8702 29.5707 74.2062 29.784 74.5369 29.912C74.8782 30.0293 75.1769 30.088 75.4329 30.088C75.7529 30.088 76.0462 30.0187 76.3129 29.88C76.5902 29.7307 76.8249 29.528 77.0169 29.272C77.2196 29.0053 77.3742 28.68 77.4809 28.296C77.5982 27.912 77.6569 27.48 77.6569 27C77.6569 26.5733 77.6196 26.184 77.5449 25.832C77.4702 25.48 77.3476 25.1813 77.1769 24.936C77.0169 24.68 76.8036 24.4827 76.5369 24.344C76.2809 24.2053 75.9716 24.136 75.6089 24.136C74.9796 24.136 74.2862 24.488 73.5289 25.192V29.272ZM80.5159 27.128C80.5159 26.4773 80.6119 25.9013 80.8039 25.4C81.0066 24.888 81.2732 24.456 81.6039 24.104C81.9346 23.752 82.3132 23.4853 82.7399 23.304C83.1772 23.1227 83.6359 23.032 84.1159 23.032C84.5959 23.032 85.0492 23.1227 85.4759 23.304C85.9132 23.4853 86.2972 23.752 86.6279 24.104C86.9586 24.456 87.2199 24.888 87.4119 25.4C87.6146 25.9013 87.7159 26.4773 87.7159 27.128C87.7159 27.768 87.6146 28.344 87.4119 28.856C87.2199 29.3573 86.9586 29.784 86.6279 30.136C86.2972 30.4773 85.9132 30.7387 85.4759 30.92C85.0492 31.1013 84.5959 31.192 84.1159 31.192C83.6359 31.192 83.1772 31.1013 82.7399 30.92C82.3132 30.7387 81.9346 30.4773 81.6039 30.136C81.2732 29.784 81.0066 29.3573 80.8039 28.856C80.6119 28.344 80.5159 27.768 80.5159 27.128ZM81.8759 27.128C81.8759 27.576 81.9292 27.9813 82.0359 28.344C82.1426 28.7067 82.2919 29.0213 82.4839 29.288C82.6866 29.544 82.9266 29.7467 83.2039 29.896C83.4812 30.0347 83.7852 30.104 84.1159 30.104C84.4466 30.104 84.7506 30.0347 85.0279 29.896C85.3052 29.7467 85.5399 29.544 85.7319 29.288C85.9346 29.0213 86.0892 28.7067 86.1959 28.344C86.3026 27.9813 86.3559 27.576 86.3559 27.128C86.3559 26.68 86.3026 26.2747 86.1959 25.912C86.0892 25.5387 85.9346 25.2187 85.7319 24.952C85.5399 24.6853 85.3052 24.4827 85.0279 24.344C84.7506 24.1947 84.4466 24.12 84.1159 24.12C83.7852 24.12 83.4812 24.1947 83.2039 24.344C82.9266 24.4827 82.6866 24.6853 82.4839 24.952C82.2919 25.2187 82.1426 25.5387 82.0359 25.912C81.9292 26.2747 81.8759 26.68 81.8759 27.128ZM89.1878 27.128C89.1878 26.4773 89.2838 25.9013 89.4758 25.4C89.6784 24.888 89.9451 24.456 90.2758 24.104C90.6064 23.752 90.9851 23.4853 91.4118 23.304C91.8491 23.1227 92.3078 23.032 92.7878 23.032C93.2678 23.032 93.7211 23.1227 94.1478 23.304C94.5851 23.4853 94.9691 23.752 95.2998 24.104C95.6304 24.456 95.8918 24.888 96.0838 25.4C96.2864 25.9013 96.3878 26.4773 96.3878 27.128C96.3878 27.768 96.2864 28.344 96.0838 28.856C95.8918 29.3573 95.6304 29.784 95.2998 30.136C94.9691 30.4773 94.5851 30.7387 94.1478 30.92C93.7211 31.1013 93.2678 31.192 92.7878 31.192C92.3078 31.192 91.8491 31.1013 91.4118 30.92C90.9851 30.7387 90.6064 30.4773 90.2758 30.136C89.9451 29.784 89.6784 29.3573 89.4758 28.856C89.2838 28.344 89.1878 27.768 89.1878 27.128ZM90.5478 27.128C90.5478 27.576 90.6011 27.9813 90.7078 28.344C90.8144 28.7067 90.9638 29.0213 91.1558 29.288C91.3584 29.544 91.5984 29.7467 91.8758 29.896C92.1531 30.0347 92.4571 30.104 92.7878 30.104C93.1184 30.104 93.4224 30.0347 93.6998 29.896C93.9771 29.7467 94.2118 29.544 94.4038 29.288C94.6064 29.0213 94.7611 28.7067 94.8678 28.344C94.9744 27.9813 95.0278 27.576 95.0278 27.128C95.0278 26.68 94.9744 26.2747 94.8678 25.912C94.7611 25.5387 94.6064 25.2187 94.4038 24.952C94.2118 24.6853 93.9771 24.4827 93.6998 24.344C93.4224 24.1947 93.1184 24.12 92.7878 24.12C92.4571 24.12 92.1531 24.1947 91.8758 24.344C91.5984 24.4827 91.3584 24.6853 91.1558 24.952C90.9638 25.2187 90.8144 25.5387 90.7078 25.912C90.6011 26.2747 90.5478 26.68 90.5478 27.128ZM98.4357 19.608H99.7317V27.32H99.7797L103.092 23.224H104.548L101.94 26.344L104.9 31H103.46L101.188 27.256L99.7317 28.952V31H98.4357V19.608Z" fill="#3B5998"/>
</svg>
