<svg width="117" height="50" viewBox="0 0 117 50" fill="none" xmlns="http://www.w3.org/2000/svg">
<rect x="1" y="1" width="115" height="48" rx="9" stroke="#DB4437" stroke-width="2"/>
<g clip-path="url(#clip0)">
<path d="M41 25.6211C41 31.9022 37.0287 36.3722 31.1639 36.3722C25.541 36.3722 21 31.4538 21 25.3636C21 19.2734 25.541 14.3551 31.1639 14.3551C33.9016 14.3551 36.2049 15.4427 37.9795 17.236L35.2131 20.1168C31.5943 16.3349 24.8648 19.1758 24.8648 25.3636C24.8648 29.2033 27.6967 32.315 31.1639 32.315C35.1885 32.315 36.6967 29.19 36.9344 27.5698H31.1639V23.7834H40.8402C40.9344 24.3471 41 24.8887 41 25.6211Z" fill="#FD5960"/>
</g>
<path d="M53.8046 31.192C53.1112 31.192 52.4712 31.0693 51.8846 30.824C51.3086 30.5787 50.8126 30.2267 50.3966 29.768C49.9806 29.2987 49.6552 28.728 49.4206 28.056C49.1859 27.3733 49.0686 26.6053 49.0686 25.752C49.0686 24.9093 49.1859 24.152 49.4206 23.48C49.6659 22.808 50.0019 22.2373 50.4286 21.768C50.8552 21.2987 51.3619 20.9413 51.9486 20.696C52.5459 20.44 53.1912 20.312 53.8846 20.312C54.2472 20.312 54.5779 20.3493 54.8766 20.424C55.1859 20.4987 55.4632 20.6 55.7086 20.728C55.9646 20.8453 56.1886 20.984 56.3806 21.144C56.5832 21.2933 56.7592 21.448 56.9086 21.608L56.1726 22.472C55.9059 22.1947 55.5966 21.96 55.2446 21.768C54.8926 21.576 54.4499 21.48 53.9166 21.48C53.3832 21.48 52.9032 21.5813 52.4766 21.784C52.0499 21.976 51.6872 22.2587 51.3886 22.632C51.0899 22.9947 50.8552 23.4373 50.6846 23.96C50.5246 24.4827 50.4446 25.0693 50.4446 25.72C50.4446 26.3813 50.5192 26.9787 50.6686 27.512C50.8286 28.0347 51.0526 28.4827 51.3406 28.856C51.6392 29.2293 52.0019 29.5173 52.4286 29.72C52.8659 29.9227 53.3672 30.024 53.9326 30.024C54.3059 30.024 54.6579 29.9707 54.9886 29.864C55.3299 29.7467 55.6072 29.592 55.8206 29.4V26.664H53.5966V25.56H57.0366V29.976C56.6952 30.328 56.2472 30.6213 55.6926 30.856C55.1379 31.08 54.5086 31.192 53.8046 31.192ZM62.4476 31.192C61.9676 31.192 61.5089 31.1013 61.0716 30.92C60.6449 30.7387 60.2662 30.4773 59.9356 30.136C59.6049 29.784 59.3382 29.3573 59.1356 28.856C58.9436 28.344 58.8476 27.768 58.8476 27.128C58.8476 26.4773 58.9436 25.9013 59.1356 25.4C59.3382 24.888 59.6049 24.456 59.9356 24.104C60.2662 23.752 60.6449 23.4853 61.0716 23.304C61.5089 23.1227 61.9676 23.032 62.4476 23.032C62.9276 23.032 63.3809 23.1227 63.8076 23.304C64.2449 23.4853 64.6289 23.752 64.9596 24.104C65.2902 24.456 65.5516 24.888 65.7436 25.4C65.9462 25.9013 66.0476 26.4773 66.0476 27.128C66.0476 27.768 65.9462 28.344 65.7436 28.856C65.5516 29.3573 65.2902 29.784 64.9596 30.136C64.6289 30.4773 64.2449 30.7387 63.8076 30.92C63.3809 31.1013 62.9276 31.192 62.4476 31.192ZM62.4476 30.104C62.7782 30.104 63.0822 30.0347 63.3596 29.896C63.6369 29.7467 63.8716 29.544 64.0636 29.288C64.2662 29.0213 64.4209 28.7067 64.5276 28.344C64.6342 27.9813 64.6876 27.576 64.6876 27.128C64.6876 26.68 64.6342 26.2747 64.5276 25.912C64.4209 25.5387 64.2662 25.2187 64.0636 24.952C63.8716 24.6853 63.6369 24.4827 63.3596 24.344C63.0822 24.1947 62.7782 24.12 62.4476 24.12C62.1169 24.12 61.8129 24.1947 61.5356 24.344C61.2582 24.4827 61.0182 24.6853 60.8156 24.952C60.6236 25.2187 60.4742 25.5387 60.3676 25.912C60.2609 26.2747 60.2076 26.68 60.2076 27.128C60.2076 27.576 60.2609 27.9813 60.3676 28.344C60.4742 28.7067 60.6236 29.0213 60.8156 29.288C61.0182 29.544 61.2582 29.7467 61.5356 29.896C61.8129 30.0347 62.1169 30.104 62.4476 30.104ZM71.1194 31.192C70.6394 31.192 70.1808 31.1013 69.7434 30.92C69.3168 30.7387 68.9381 30.4773 68.6074 30.136C68.2768 29.784 68.0101 29.3573 67.8074 28.856C67.6154 28.344 67.5194 27.768 67.5194 27.128C67.5194 26.4773 67.6154 25.9013 67.8074 25.4C68.0101 24.888 68.2768 24.456 68.6074 24.104C68.9381 23.752 69.3168 23.4853 69.7434 23.304C70.1808 23.1227 70.6394 23.032 71.1194 23.032C71.5994 23.032 72.0528 23.1227 72.4794 23.304C72.9168 23.4853 73.3008 23.752 73.6314 24.104C73.9621 24.456 74.2234 24.888 74.4154 25.4C74.6181 25.9013 74.7194 26.4773 74.7194 27.128C74.7194 27.768 74.6181 28.344 74.4154 28.856C74.2234 29.3573 73.9621 29.784 73.6314 30.136C73.3008 30.4773 72.9168 30.7387 72.4794 30.92C72.0528 31.1013 71.5994 31.192 71.1194 31.192ZM71.1194 30.104C71.4501 30.104 71.7541 30.0347 72.0314 29.896C72.3088 29.7467 72.5434 29.544 72.7354 29.288C72.9381 29.0213 73.0928 28.7067 73.1994 28.344C73.3061 27.9813 73.3594 27.576 73.3594 27.128C73.3594 26.68 73.3061 26.2747 73.1994 25.912C73.0928 25.5387 72.9381 25.2187 72.7354 24.952C72.5434 24.6853 72.3088 24.4827 72.0314 24.344C71.7541 24.1947 71.4501 24.12 71.1194 24.12C70.7888 24.12 70.4848 24.1947 70.2074 24.344C69.9301 24.4827 69.6901 24.6853 69.4874 24.952C69.2954 25.2187 69.1461 25.5387 69.0394 25.912C68.9328 26.2747 68.8794 26.68 68.8794 27.128C68.8794 27.576 68.9328 27.9813 69.0394 28.344C69.1461 28.7067 69.2954 29.0213 69.4874 29.288C69.6901 29.544 69.9301 29.7467 70.2074 29.896C70.4848 30.0347 70.7888 30.104 71.1194 30.104ZM79.3913 34.584C78.9113 34.584 78.474 34.536 78.0793 34.44C77.6847 34.3547 77.3433 34.2213 77.0553 34.04C76.778 33.8587 76.5593 33.64 76.3993 33.384C76.25 33.128 76.1753 32.8293 76.1753 32.488C76.1753 32.1573 76.2767 31.8427 76.4793 31.544C76.682 31.2453 76.9593 30.9733 77.3113 30.728V30.664C77.1193 30.5467 76.954 30.3867 76.8153 30.184C76.6873 29.9707 76.6233 29.7093 76.6233 29.4C76.6233 29.0693 76.714 28.7813 76.8953 28.536C77.0767 28.2907 77.2687 28.0987 77.4713 27.96V27.896C77.2153 27.6827 76.9807 27.4 76.7673 27.048C76.5647 26.6853 76.4633 26.2693 76.4633 25.8C76.4633 25.3733 76.538 24.9893 76.6873 24.648C76.8473 24.3067 77.0607 24.0187 77.3273 23.784C77.594 23.5387 77.9033 23.352 78.2553 23.224C78.618 23.096 78.9967 23.032 79.3913 23.032C79.6047 23.032 79.802 23.0533 79.9833 23.096C80.1753 23.128 80.346 23.1707 80.4953 23.224H83.1993V24.232H81.5993C81.7807 24.4133 81.93 24.6427 82.0473 24.92C82.1753 25.1973 82.2393 25.5013 82.2393 25.832C82.2393 26.248 82.1647 26.6267 82.0153 26.968C81.866 27.2987 81.6633 27.5813 81.4073 27.816C81.1513 28.04 80.8473 28.216 80.4953 28.344C80.154 28.472 79.786 28.536 79.3913 28.536C79.1993 28.536 79.002 28.5147 78.7993 28.472C78.5967 28.4187 78.4047 28.3493 78.2233 28.264C78.0847 28.3813 77.9673 28.5147 77.8713 28.664C77.7753 28.8027 77.7273 28.9787 77.7273 29.192C77.7273 29.4373 77.8233 29.64 78.0153 29.8C78.2073 29.96 78.57 30.04 79.1033 30.04H80.6073C81.514 30.04 82.1913 30.1893 82.6393 30.488C83.098 30.776 83.3273 31.2453 83.3273 31.896C83.3273 32.2587 83.2367 32.6 83.0553 32.92C82.874 33.2507 82.6127 33.5387 82.2713 33.784C81.93 34.0293 81.514 34.2213 81.0233 34.36C80.5433 34.5093 79.9993 34.584 79.3913 34.584ZM79.3913 27.656C79.6153 27.656 79.8233 27.6133 80.0153 27.528C80.218 27.4427 80.394 27.32 80.5433 27.16C80.7033 27 80.826 26.808 80.9113 26.584C80.9967 26.3493 81.0393 26.088 81.0393 25.8C81.0393 25.224 80.8793 24.7813 80.5593 24.472C80.2393 24.152 79.85 23.992 79.3913 23.992C78.9327 23.992 78.5433 24.152 78.2233 24.472C77.9033 24.7813 77.7433 25.224 77.7433 25.8C77.7433 26.088 77.786 26.3493 77.8713 26.584C77.9567 26.808 78.074 27 78.2233 27.16C78.3833 27.32 78.5593 27.4427 78.7513 27.528C78.954 27.6133 79.1673 27.656 79.3913 27.656ZM79.5833 33.672C79.9567 33.672 80.2927 33.624 80.5913 33.528C80.9007 33.4427 81.162 33.3253 81.3753 33.176C81.5887 33.0373 81.754 32.872 81.8713 32.68C81.9887 32.488 82.0473 32.2907 82.0473 32.088C82.0473 31.7253 81.914 31.4747 81.6473 31.336C81.3807 31.1973 80.9913 31.128 80.4793 31.128H79.1353C78.986 31.128 78.8207 31.1173 78.6393 31.096C78.4687 31.0853 78.298 31.0533 78.1273 31C77.85 31.2027 77.6473 31.416 77.5193 31.64C77.3913 31.864 77.3273 32.088 77.3273 32.312C77.3273 32.728 77.5247 33.0587 77.9193 33.304C78.3247 33.5493 78.8793 33.672 79.5833 33.672ZM86.2218 31.192C85.7205 31.192 85.3632 31.0427 85.1498 30.744C84.9365 30.4453 84.8298 30.008 84.8298 29.432V19.608H86.1418V29.528C86.1418 29.7413 86.1792 29.8907 86.2538 29.976C86.3285 30.0613 86.4138 30.104 86.5098 30.104C86.5525 30.104 86.5898 30.104 86.6218 30.104C86.6645 30.104 86.7232 30.0933 86.7978 30.072L86.9738 31.064C86.8885 31.1067 86.7872 31.1387 86.6698 31.16C86.5525 31.1813 86.4032 31.192 86.2218 31.192ZM92.0599 31.192C91.5373 31.192 91.0466 31.1013 90.5879 30.92C90.1399 30.728 89.7453 30.4613 89.4039 30.12C89.0733 29.768 88.8119 29.3413 88.6199 28.84C88.4279 28.3387 88.3319 27.768 88.3319 27.128C88.3319 26.488 88.4279 25.9173 88.6199 25.416C88.8226 24.904 89.0839 24.472 89.4039 24.12C89.7346 23.768 90.1079 23.5013 90.5239 23.32C90.9399 23.128 91.3719 23.032 91.8199 23.032C92.3106 23.032 92.7479 23.1173 93.1319 23.288C93.5266 23.4587 93.8519 23.704 94.1079 24.024C94.3746 24.344 94.5773 24.728 94.7159 25.176C94.8546 25.624 94.9239 26.1253 94.9239 26.68C94.9239 26.8187 94.9186 26.9573 94.9079 27.096C94.9079 27.224 94.8973 27.336 94.8759 27.432H89.6279C89.6813 28.264 89.9373 28.9253 90.3959 29.416C90.8653 29.896 91.4733 30.136 92.2199 30.136C92.5933 30.136 92.9346 30.0827 93.2439 29.976C93.5639 29.8587 93.8679 29.7093 94.1559 29.528L94.6199 30.392C94.2786 30.6053 93.8999 30.792 93.4839 30.952C93.0679 31.112 92.5933 31.192 92.0599 31.192ZM89.6119 26.488H93.7719C93.7719 25.6987 93.6013 25.1013 93.2599 24.696C92.9293 24.28 92.4599 24.072 91.8519 24.072C91.5746 24.072 91.3079 24.1253 91.0519 24.232C90.8066 24.3387 90.5826 24.4987 90.3799 24.712C90.1773 24.9147 90.0066 25.1653 89.8679 25.464C89.7399 25.7627 89.6546 26.104 89.6119 26.488Z" fill="#FD5960"/>
<defs>
<clipPath id="clip0">
<rect x="21" y="14" width="20" height="22.7273" fill="white"/>
</clipPath>
</defs>
</svg>
