<svg width="65" height="65" viewBox="0 0 65 65" fill="none" xmlns="http://www.w3.org/2000/svg">
<circle cx="32.5" cy="32.5" r="32.5" fill="#C4C4C4"/>
<g clip-path="url(#clip0)">
<path d="M47.5949 33.4284H44.4262C44.4262 34.7626 44.128 36.0067 43.6247 37.1245L45.9174 39.3422C46.9612 37.5753 47.5949 35.574 47.5949 33.4284ZM40.1018 33.7349C40.1018 33.6268 40.1391 33.5366 40.1391 33.4284V22.6105C40.1391 19.6175 37.6413 17.2015 34.5472 17.2015C31.453 17.2015 28.9552 19.6175 28.9552 22.6105V22.935L40.1018 33.7349ZM20.1387 19.0045L17.7714 21.2943L28.9739 32.1303V33.4284C28.9739 36.4214 31.453 38.8374 34.5472 38.8374C34.9572 38.8374 35.3673 38.7833 35.7587 38.6931L38.8529 41.6861C37.5295 42.2811 36.057 42.6237 34.5472 42.6237C29.4026 42.6237 24.6681 38.8374 24.6681 33.4284H21.4994C21.4994 39.5766 26.5694 44.661 32.6832 45.5445V51.4583H36.4111V45.5445C38.1073 45.3101 39.7104 44.7332 41.1456 43.9218L48.9556 51.4583L51.3229 49.1685L20.1387 19.0045Z" fill="white"/>
</g>
<defs>
<clipPath id="clip0">
<rect x="18.4167" y="16.25" width="29.25" height="32.5" fill="white"/>
</clipPath>
</defs>
</svg>
