<svg width="65" height="65" viewBox="0 0 65 65" fill="none" xmlns="http://www.w3.org/2000/svg">
<circle cx="32.5" cy="32.5" r="32.5" fill="#ED4848"/>
<g clip-path="url(#clip0)">
<path d="M47.595 33.4283H44.4263C44.4263 34.7625 44.128 36.0066 43.6248 37.1244L45.9174 39.3421C46.9613 37.5752 47.595 35.5739 47.595 33.4283ZM40.1018 33.7348C40.1018 33.6266 40.1391 33.5365 40.1391 33.4283V22.6104C40.1391 19.6174 37.6414 17.2014 34.5472 17.2014C31.453 17.2014 28.9553 19.6174 28.9553 22.6104V22.9349L40.1018 33.7348ZM20.1387 19.0044L17.7715 21.2942L28.9739 32.1301V33.4283C28.9739 36.4213 31.453 38.8373 34.5472 38.8373C34.9573 38.8373 35.3674 38.7832 35.7588 38.693L38.853 41.686C37.5296 42.281 36.057 42.6235 34.5472 42.6235C29.4027 42.6235 24.6682 38.8373 24.6682 33.4283H21.4994C21.4994 39.5765 26.5694 44.6609 32.6832 45.5444V51.4582H36.4112V45.5444C38.1074 45.31 39.7104 44.733 41.1457 43.9217L48.9557 51.4582L51.3229 49.1684L20.1387 19.0044Z" fill="white"/>
</g>
<defs>
<clipPath id="clip0">
<rect x="18.4167" y="16.25" width="29.25" height="32.5" fill="white"/>
</clipPath>
</defs>
</svg>
