<svg width="23" height="23" viewBox="0 0 23 23" fill="none" xmlns="http://www.w3.org/2000/svg">
<path d="M16.6637 6.5275L9.25 13.9412L5.21125 9.91375L3.625 11.5L9.25 17.125L18.25 8.125L16.6637 6.5275ZM11.5 0.25C5.29 0.25 0.25 5.29 0.25 11.5C0.25 17.71 5.29 22.75 11.5 22.75C17.71 22.75 22.75 17.71 22.75 11.5C22.75 5.29 17.71 0.25 11.5 0.25ZM11.5 20.5C6.5275 20.5 2.5 16.4725 2.5 11.5C2.5 6.5275 6.5275 2.5 11.5 2.5C16.4725 2.5 20.5 6.5275 20.5 11.5C20.5 16.4725 16.4725 20.5 11.5 20.5Z" fill="white"/>
</svg>
