<svg width="65" height="65" viewBox="0 0 65 65" fill="none" xmlns="http://www.w3.org/2000/svg">
<circle cx="32.5" cy="32.5" r="32.5" fill="#C4C4C4"/>
<g clip-path="url(#clip0)">
<path d="M16.4331 34.8233C16.179 32.6215 16.3907 30.496 16.9666 28.5313C18.8804 22.0021 24.8846 17.2005 32.0065 17.1158V12.8478C32.0065 12.6106 32.3029 12.4836 32.4977 12.6276L41.2794 19.0805C41.4234 19.1906 41.4234 19.4108 41.2794 19.5124L32.5061 25.9654C32.3029 26.1093 32.015 25.9823 32.015 25.7452V21.4856C27.3319 21.5618 23.3348 24.4495 21.6157 28.5313C20.9637 30.0725 20.6334 31.7747 20.7266 33.5615C20.8536 36.0174 21.7766 38.2785 23.2332 40.1076C24.0123 41.0815 23.826 42.5042 22.8183 43.241C21.8613 43.9438 20.5233 43.7491 19.7866 42.8175C17.9828 40.5649 16.7803 37.8212 16.4331 34.8233ZM41.7875 26.6259C43.2526 28.4466 44.1756 30.7162 44.2942 33.172C44.3874 34.9673 44.0486 36.6695 43.405 38.2022C41.6859 42.284 37.6888 45.1802 33.0058 45.248V40.9884C33.0058 40.7512 32.7094 40.6242 32.5146 40.7682L23.7328 47.2211C23.5889 47.3312 23.5889 47.5514 23.7328 47.653L32.5061 54.106C32.7094 54.2499 32.9973 54.1229 32.9973 53.8858V49.6177C40.1193 49.5415 46.1319 44.7399 48.0373 38.2022C48.6131 36.2376 48.8163 34.112 48.5708 31.9102C48.232 28.9124 47.0295 26.1686 45.2257 23.916C44.4805 22.9845 43.151 22.7897 42.194 23.4926C41.1948 24.2293 41.0085 25.652 41.7875 26.6259Z" fill="white"/>
</g>
<defs>
<clipPath id="clip0">
<rect x="11.7" y="12.5668" width="41.6" height="41.6" fill="white"/>
</clipPath>
</defs>
</svg>
